# xmcd
#
# Track frame offsets:
#	150
#	21697
#	39310
#	52957
#
# Disc length: 941 seconds
#
# Revision: 1
# Processed by: cddbd v1.5.1PL0 Copyright (c) Steve Scherf et al.
# Submitted via: audiograbber 1.83.01
#
DISCID=2d03ab04
DTITLE=Black Sorrows - Snake Skin Shoes Single
DYEAR=1900
DGENRE=Country
TTITLE0=Snake Skin Shoes
TTITLE1=When it All Comes Down
TTITLE2=Nobody Can Tell
TTITLE3=Down to the Sea
EXTD=
EXTT0=
EXTT1=
EXTT2=
EXTT3=
PLAYORDER=
